<?xml version="1.0" standalone="no"?>
<!DOCTYPE svg PUBLIC "-//W3C//DTD SVG 20010904//EN"
 "http://www.w3.org/TR/2001/REC-SVG-20010904/DTD/svg10.dtd">
<svg version="1.0" xmlns="http://www.w3.org/2000/svg"
 width="980.000000pt" height="980.000000pt" viewBox="0 0 980.000000 980.000000"
 preserveAspectRatio="xMidYMid meet">

<g transform="translate(0.000000,980.000000) scale(0.100000,-0.100000)"
fill="#000000" stroke="none">
<path d="M4560 9789 c-1035 -75 -1998 -463 -2800 -1128 -150 -123 -501 -475
-622 -621 -534 -647 -880 -1372 -1042 -2180 -259 -1291 18 -2648 761 -3727
277 -403 628 -778 1018 -1087 680 -539 1533 -896 2400 -1005 1374 -174 2726
225 3790 1118 120 101 395 371 509 501 576 655 962 1433 1130 2280 271 1359
-45 2772 -869 3880 -195 261 -499 588 -739 793 -772 662 -1678 1052 -2696
1162 -174 19 -664 27 -840 14z m2456 -2156 c22 -12 57 -40 77 -62 72 -80 67
137 67 -2671 0 -2808 5 -2591 -67 -2671 -20 -22 -55 -50 -77 -62 l-41 -22
-2075 0 -2075 0 -41 22 c-22 12 -57 40 -77 62 -72 80 -67 -137 -67 2671 0
2808 -5 2591 67 2671 36 40 75 65 123 80 14 4 952 7 2085 6 l2060 -2 41 -22z"/>
<path d="M2895 7398 c-3 -7 -4 -233 -3 -503 l3 -490 125 0 125 0 5 342 5 341
24 26 c34 36 82 50 125 36 18 -6 44 -22 57 -36 l24 -26 5 -341 5 -342 125 0
125 0 5 275 c3 151 9 283 13 292 13 27 71 58 106 58 42 0 83 -22 107 -57 17
-25 19 -52 22 -301 l3 -272 247 2 247 3 5 342 5 341 24 26 c14 15 42 31 62 37
31 10 43 9 75 -7 21 -11 47 -32 58 -47 20 -27 21 -43 24 -363 l3 -334 124 0
125 0 0 268 c0 247 2 269 20 299 49 82 153 84 207 4 23 -33 23 -40 23 -302 l0
-269 125 0 125 0 0 325 c0 252 3 333 14 358 35 86 162 98 213 21 16 -25 18
-61 23 -364 l5 -335 123 -3 122 -3 0 261 c0 204 3 268 14 295 33 79 138 98
200 36 l31 -31 5 -278 5 -277 123 -3 122 -3 0 261 c0 290 4 315 62 350 39 24
78 25 122 5 59 -28 61 -34 66 -335 l5 -275 123 -3 122 -3 0 506 0 505 -2000 0
c-1591 0 -2002 -3 -2005 -12z"/>
<path d="M2892 5588 l3 -563 125 0 125 0 3 398 c2 349 4 401 19 423 33 51 106
68 162 40 61 -32 61 -27 63 -463 l3 -398 125 0 125 0 5 342 5 341 24 26 c14
15 42 31 62 37 31 10 43 9 75 -7 21 -11 47 -32 58 -47 20 -27 21 -43 24 -363
l3 -335 122 3 122 3 5 342 5 341 24 26 c14 15 42 31 62 37 31 10 43 9 75 -7
21 -11 47 -32 58 -47 20 -27 21 -43 24 -363 l3 -334 249 0 249 0 3 405 3 405
33 32 c29 29 39 33 87 33 48 0 58 -4 87 -33 l33 -32 3 -405 3 -405 124 0 125
0 0 325 c0 252 3 333 14 358 35 86 162 98 213 21 16 -25 18 -61 23 -364 l5
-335 123 -3 122 -3 0 386 c0 427 1 438 62 475 40 24 90 26 127 4 56 -33 56
-27 61 -459 l5 -400 122 -3 122 -3 3 335 c3 320 4 336 24 363 11 15 37 36 58
47 32 16 44 17 75 7 20 -6 48 -22 62 -37 l24 -26 5 -341 5 -342 123 -3 122 -3
0 566 0 565 -2005 0 -2005 0 2 -562z"/>
<path d="M2890 4210 l0 -560 380 0 380 0 0 265 c0 292 3 311 60 340 66 34 154
2 177 -65 8 -23 12 -119 12 -287 l1 -253 125 0 125 0 0 336 0 336 33 33 c42
42 92 53 140 30 72 -34 72 -31 75 -402 l3 -333 125 0 124 0 0 266 c0 228 2
270 16 294 36 60 126 80 179 38 51 -40 55 -65 55 -343 l0 -255 125 0 125 0 0
261 c0 287 4 309 59 342 40 24 102 22 135 -4 54 -42 56 -56 56 -339 l0 -260
250 0 249 0 3 334 c3 321 4 336 24 363 11 15 39 34 61 42 35 13 46 13 79 0 22
-8 48 -29 61 -48 23 -34 23 -38 23 -362 l0 -329 125 0 125 0 0 323 c0 293 2
325 18 356 19 35 72 71 105 71 36 0 87 -30 107 -62 19 -31 20 -50 20 -360 l0
-328 125 0 125 0 0 560 0 560 -2005 0 -2005 0 0 -560z"/>
<path d="M2892 2893 l3 -498 125 0 125 0 5 278 5 279 32 29 c58 51 108 51 166
0 l32 -29 5 -279 5 -278 125 0 125 0 5 335 c5 361 6 367 60 395 73 38 159 3
180 -73 6 -22 10 -167 10 -349 l0 -313 125 0 125 0 0 276 0 276 33 33 c42 42
92 53 140 30 71 -33 72 -38 75 -342 l3 -273 125 0 124 0 0 330 c0 363 2 375
60 405 43 22 102 19 135 -7 52 -41 55 -60 55 -408 l0 -320 250 0 250 0 0 326
c0 271 3 331 15 358 42 88 178 88 220 0 12 -27 15 -87 15 -358 l0 -326 125 0
124 0 3 274 c3 260 4 276 24 303 11 15 39 34 61 42 35 13 46 13 79 0 22 -8 48
-29 61 -48 22 -33 23 -40 23 -302 l0 -269 125 0 125 0 0 263 c0 235 2 266 18
296 19 35 72 71 105 71 36 0 87 -30 107 -62 19 -31 20 -50 20 -300 l0 -268
125 0 125 0 0 500 0 500 -2005 0 -2005 0 2 -497z"/>
</g>
</svg>
