<?xml version="1.0" standalone="no"?>
<!DOCTYPE svg PUBLIC "-//W3C//DTD SVG 20010904//EN"
 "http://www.w3.org/TR/2001/REC-SVG-20010904/DTD/svg10.dtd">
<svg version="1.0" xmlns="http://www.w3.org/2000/svg"
 width="400.000000pt" height="400.000000pt" viewBox="0 0 400.000000 400.000000"
 preserveAspectRatio="xMidYMid meet">

<g transform="translate(0.000000,400.000000) scale(0.100000,-0.100000)"
fill="#000000" stroke="none">
<path d="M0 2000 l0 -2000 2000 0 2000 0 0 2000 0 2000 -2000 0 -2000 0 0
-2000z m3510 788 l0 -583 -48 -56 c-26 -31 -85 -103 -132 -160 -361 -439 -614
-747 -674 -819 -39 -47 -111 -135 -161 -195 -205 -250 -280 -341 -289 -351 -6
-6 -53 -64 -105 -128 -52 -64 -98 -116 -101 -116 -4 0 -54 57 -111 128 -225
274 -575 699 -978 1187 l-420 510 -1 583 0 582 1510 0 1510 0 0 -582z"/>
<path d="M587 3283 c-4 -3 -7 -241 -7 -527 l0 -521 248 -300 c619 -752 721
-877 936 -1138 125 -152 231 -277 236 -277 6 0 841 1009 1345 1627 l75 91 -2
524 -3 523 -1411 3 c-776 1 -1414 -1 -1417 -5z m2761 -470 l2 -393 -1350 0
-1350 0 0 389 c0 251 4 391 10 393 6 2 612 3 1348 3 l1337 0 3 -392z m-1591
-1215 c2 -532 0 -670 -10 -657 -6 8 -101 123 -209 255 -585 711 -875 1070
-868 1074 5 3 250 4 547 3 l538 -3 2 -672z m1566 660 c-28 -36 -1044 -1278
-1066 -1303 l-26 -30 -1 673 0 672 551 0 c440 0 549 -3 542 -12z"/>
<path d="M837 3052 c-14 -15 -17 -40 -17 -130 0 -107 2 -117 33 -144 1 0 70
-4 152 -7 l150 -6 0 -50 0 -50 -170 -5 -170 -5 0 -50 0 -50 217 -3 c275 -3
258 -14 258 161 0 166 7 160 -194 167 l-151 5 -3 42 -3 43 173 2 173 3 3 48 3
47 -219 0 c-199 0 -220 -2 -235 -18z"/>
<path d="M1442 2808 l3 -263 60 0 60 0 3 98 3 97 134 0 c73 0 145 4 160 10 42
16 58 69 53 179 -4 87 -6 95 -32 117 -27 24 -31 24 -237 24 l-209 0 2 -262z
m347 138 c7 -8 11 -32 9 -53 l-3 -38 -112 -3 -113 -3 0 49 c0 27 3 52 7 55 3
4 50 7 103 7 72 0 101 -4 109 -14z"/>
<path d="M2080 2805 l0 -265 55 0 54 0 3 98 3 97 133 3 133 3 -3 57 -3 57
-130 5 -130 5 0 50 0 50 175 5 175 5 3 48 3 47 -235 0 -236 0 0 -265z"/>
<path d="M2725 3045 c-25 -24 -25 -24 -25 -235 l0 -212 29 -29 29 -29 167 0
c234 0 255 11 255 134 l0 66 -60 0 c-57 0 -60 -1 -60 -24 0 -46 -23 -56 -129
-56 -67 0 -101 4 -108 13 -12 15 -16 164 -8 240 l7 58 116 -3 117 -3 5 -30 c5
-29 7 -30 63 -33 l57 -3 0 65 c0 58 -3 67 -26 85 -25 20 -40 21 -216 21 -187
0 -189 0 -213 -25z"/>
</g>
</svg>
